{
  "accessors": [
    {
      "bufferView": 2,
      "componentType": 5126,
      "count": 2795,
      "max": [
        5.92308235168457,
        48.346710205078125,
        83.57054901123047
      ],
      "min": [
        -17.23459815979004,
        7.39891242980957,
        -204.13694763183594
      ],
      "type": "VEC3"
    },
    {
      "bufferView": 2,
      "byteOffset": 33540,
      "componentType": 5126,
      "count": 2795,
      "max": [
        0.999984860420227,
        0.9999960660934448,
        0.9987287521362305
      ],
      "min": [
        -0.9999662637710571,
        -0.999969482421875,
        -0.9998189210891724
      ],
      "type": "VEC3"
    },
    {
      "bufferView": 3,
      "componentType": 5126,
      "count": 2795,
      "max": [
        0.9999995231628418,
        0.9999735951423645,
        0.9686031341552734,
        1.0
      ],
      "min": [
        -1.0,
        -0.999972939491272,
        -0.9682149887084961,
        1.0
      ],
      "type": "VEC4"
    },
    {
      "bufferView": 1,
      "componentType": 5126,
      "count": 2795,
      "max": [
        0.24126000702381134,
        0.999019980430603
      ],
      "min": [
        0.0009699999936856329,
        0.0009699999936856329
      ],
      "type": "VEC2"
    },
    {
      "bufferView": 0,
      "componentType": 5125,
      "count": 15960,
      "type": "SCALAR"
    },
    {
      "bufferView": 2,
      "byteOffset": 67080,
      "componentType": 5126,
      "count": 623,
      "max": [
        19.101699829101563,
        84.60160064697266,
        98.88919830322266
      ],
      "min": [
        -30.42799949645996,
        -53.186100006103516,
        1.9127299785614014
      ],
      "type": "VEC3"
    },
    {
      "bufferView": 2,
      "byteOffset": 74556,
      "componentType": 5126,
      "count": 623,
      "max": [
        0.999997615814209,
        1.0,
        0.9998629093170166
      ],
      "min": [
        -0.9999969005584717,
        -1.0,
        -0.9982094764709473
      ],
      "type": "VEC3"
    },
    {
      "bufferView": 3,
      "byteOffset": 44720,
      "componentType": 5126,
      "count": 623,
      "max": [
        1.0,
        0.9939677119255066,
        0.9999977350234985,
        1.0
      ],
      "min": [
        -0.9988381266593933,
        -0.9965248107910156,
        -0.9999990463256836,
        -1.0
      ],
      "type": "VEC4"
    },
    {
      "bufferView": 1,
      "byteOffset": 22360,
      "componentType": 5126,
      "count": 623,
      "max": [
        0.8644099831581116,
        0.9995099902153015
      ],
      "min": [
        0.0004799999878741801,
        0.0004799999878741801
      ],
      "type": "VEC2"
    },
    {
      "bufferView": 0,
      "byteOffset": 63840,
      "componentType": 5125,
      "count": 3216,
      "type": "SCALAR"
    }
  ],
  "asset": {
    "extras": {
      "author": "Fred Drabble (https://sketchfab.com/FredDrabble)",
      "license": "CC-BY-4.0 (http://creativecommons.org/licenses/by/4.0/)",
      "source": "https://sketchfab.com/3d-models/stormbreaker-fc7044fece3e4cfdbf31994faebc58e0",
      "title": "STORMBREAKER"
    },
    "generator": "Sketchfab-12.67.0",
    "version": "2.0"
  },
  "bufferViews": [
    {
      "buffer": 0,
      "byteLength": 76704,
      "name": "floatBufferViews",
      "target": 34963
    },
    {
      "buffer": 0,
      "byteLength": 27344,
      "byteOffset": 76704,
      "byteStride": 8,
      "name": "floatBufferViews",
      "target": 34962
    },
    {
      "buffer": 0,
      "byteLength": 82032,
      "byteOffset": 104048,
      "byteStride": 12,
      "name": "floatBufferViews",
      "target": 34962
    },
    {
      "buffer": 0,
      "byteLength": 54688,
      "byteOffset": 186080,
      "byteStride": 16,
      "name": "floatBufferViews",
      "target": 34962
    }
  ],
  "buffers": [
    {
      "byteLength": 240768,
      "uri": "scene.bin"
    }
  ],
  "images": [
    {
      "uri": "textures/02_-_Default_baseColor.png"
    },
    {
      "uri": "textures/02_-_Default_metallicRoughness.png"
    },
    {
      "uri": "textures/02_-_Default_normal.png"
    },
    {
      "uri": "textures/defaultMat_baseColor.png"
    },
    {
      "uri": "textures/defaultMat_metallicRoughness.png"
    },
    {
      "uri": "textures/defaultMat_normal.png"
    }
  ],
  "materials": [
    {
      "doubleSided": true,
      "name": "02_-_Default",
      "normalTexture": {
        "index": 2
      },
      "pbrMetallicRoughness": {
        "baseColorTexture": {
          "index": 0
        },
        "metallicFactor": 0.0,
        "metallicRoughnessTexture": {
          "index": 1
        }
      }
    },
    {
      "doubleSided": true,
      "name": "defaultMat",
      "normalTexture": {
        "index": 5
      },
      "occlusionTexture": {
        "index": 4
      },
      "pbrMetallicRoughness": {
        "baseColorTexture": {
          "index": 3
        },
        "metallicRoughnessTexture": {
          "index": 4
        }
      }
    }
  ],
  "meshes": [
    {
      "name": "handlelp_02 - Default_0",
      "primitives": [
        {
          "attributes": {
            "NORMAL": 1,
            "POSITION": 0,
            "TANGENT": 2,
            "TEXCOORD_0": 3
          },
          "indices": 4,
          "material": 0,
          "mode": 4
        }
      ]
    },
    {
      "name": "head_defaultMat_0",
      "primitives": [
        {
          "attributes": {
            "NORMAL": 6,
            "POSITION": 5,
            "TANGENT": 7,
            "TEXCOORD_0": 8
          },
          "indices": 9,
          "material": 1,
          "mode": 4
        }
      ]
    }
  ],
  "nodes": [
    {
      "children": [
        1
      ],
      "matrix": [
        -0.00022851860558148474,
        0.0008500335970891282,
        0.9999996423721313,
        0.0,
        0.9657117128372192,
        0.259616881608963,
        5.764652790873082e-17,
        0.0,
        -0.25961676239967346,
        0.9657112956047058,
        -0.000880214676726395,
        0.0,
        -34.49575424194336,
        -5.877605438232419,
        -10.090956687927248,
        1.0
      ],
      "name": "Sketchfab_model"
    },
    {
      "children": [
        2
      ],
      "matrix": [
        1.0,
        0.0,
        0.0,
        0.0,
        0.0,
        0.0,
        1.0,
        0.0,
        0.0,
        -1.0,
        0.0,
        0.0,
        0.0,
        0.0,
        0.0,
        1.0
      ],
      "name": "13181b26d09f46319f3d2cd17409df56.fbx"
    },
    {
      "children": [
        3,
        6
      ],
      "name": "RootNode"
    },
    {
      "children": [
        4
      ],
      "matrix": [
        1.0,
        0.0,
        0.0,
        0.0,
        0.0,
        2.220446049250313e-16,
        -1.0,
        0.0,
        0.0,
        1.0,
        2.220446049250313e-16,
        0.0,
        -5.655757904052734,
        -60.283199310302734,
        -27.87281036376953,
        1.0
      ],
      "name": "handlelp"
    },
    {
      "children": [
        5
      ],
      "matrix": [
        1.0,
        0.0,
        -0.0,
        0.0,
        0.0,
        1.0,
        0.0,
        0.0,
        0.0,
        0.0,
        1.0,
        0.0,
        5.655757904052734,
        -27.87281036376953,
        60.283199310302734,
        1.0
      ],
      "name": "Object_4"
    },
    {
      "mesh": 0,
      "name": "handlelp_02 - Default_0"
    },
    {
      "children": [
        7
      ],
      "matrix": [
        1.0,
        0.0,
        0.0,
        0.0,
        0.0,
        2.220446049250313e-16,
        -1.0,
        0.0,
        0.0,
        1.0,
        2.220446049250313e-16,
        0.0,
        0.0,
        0.0,
        0.0,
        1.0
      ],
      "name": "head"
    },
    {
      "mesh": 1,
      "name": "head_defaultMat_0"
    }
  ],
  "samplers": [
    {
      "magFilter": 9729,
      "minFilter": 9987,
      "wrapS": 10497,
      "wrapT": 10497
    }
  ],
  "scene": 0,
  "scenes": [
    {
      "name": "Sketchfab_Scene",
      "nodes": [
        0
      ]
    }
  ],
  "textures": [
    {
      "sampler": 0,
      "source": 0
    },
    {
      "sampler": 0,
      "source": 1
    },
    {
      "sampler": 0,
      "source": 2
    },
    {
      "sampler": 0,
      "source": 3
    },
    {
      "sampler": 0,
      "source": 4
    },
    {
      "sampler": 0,
      "source": 5
    }
  ]
}
